<?xml version="1.0"?>
<svg xmlns="http://www.w3.org/2000/svg" xmlns:xlink="http://www.w3.org/1999/xlink" xmlns:svgjs="http://svgjs.com/svgjs" version="1.1" width="512" height="512" x="0" y="0" viewBox="0 0 684 684" style="enable-background:new 0 0 512 512" xml:space="preserve"><g>
<g xmlns="http://www.w3.org/2000/svg" id="surface1">
<path d="M 433.199219 136.800781 L 615.601562 136.800781 C 621.898438 136.800781 627 131.699219 627 125.398438 L 627 34.199219 C 627 27.898438 621.898438 22.800781 615.601562 22.800781 L 433.199219 22.800781 C 426.898438 22.800781 421.800781 27.898438 421.800781 34.199219 L 421.800781 125.398438 C 421.800781 131.699219 426.898438 136.800781 433.199219 136.800781 Z M 444.601562 45.601562 L 604.199219 45.601562 L 604.199219 114 L 444.601562 114 Z M 444.601562 45.601562 " style="" fill="#ffffff" data-original="#000000"/>
<path d="M 672.601562 159.601562 L 490.199219 159.601562 C 483.898438 159.601562 478.800781 164.699219 478.800781 171 L 478.800781 262.199219 C 478.800781 268.5 483.898438 273.601562 490.199219 273.601562 L 672.601562 273.601562 C 678.898438 273.601562 684 268.5 684 262.199219 L 684 171 C 684 164.699219 678.898438 159.601562 672.601562 159.601562 Z M 661.199219 250.800781 L 501.601562 250.800781 L 501.601562 182.398438 L 661.199219 182.398438 Z M 661.199219 250.800781 " style="" fill="#ffffff" data-original="#000000"/>
<path d="M 672.601562 296.398438 L 535.800781 296.398438 C 529.5 296.398438 524.398438 301.5 524.398438 307.800781 L 524.398438 399 C 524.398438 405.300781 529.5 410.398438 535.800781 410.398438 L 672.601562 410.398438 C 678.898438 410.398438 684 405.300781 684 399 L 684 307.800781 C 684 301.5 678.898438 296.398438 672.601562 296.398438 Z M 661.199219 387.601562 L 547.199219 387.601562 L 547.199219 319.199219 L 661.199219 319.199219 Z M 661.199219 387.601562 " style="" fill="#ffffff" data-original="#000000"/>
<path d="M 672.601562 433.199219 L 581.398438 433.199219 C 575.101562 433.199219 570 438.300781 570 444.601562 L 570 535.800781 C 570 542.101562 575.101562 547.199219 581.398438 547.199219 L 672.601562 547.199219 C 678.898438 547.199219 684 542.101562 684 535.800781 L 684 444.601562 C 684 438.300781 678.898438 433.199219 672.601562 433.199219 Z M 661.199219 524.398438 L 592.800781 524.398438 L 592.800781 456 L 661.199219 456 Z M 661.199219 524.398438 " style="" fill="#ffffff" data-original="#000000"/>
<path d="M 581.398438 570 L 497 570 C 495.601562 562.199219 494 554.601562 492.101562 547.199219 L 535.800781 547.199219 C 542.101562 547.199219 547.199219 542.101562 547.199219 535.800781 L 547.199219 444.601562 C 547.199219 438.300781 542.101562 433.199219 535.800781 433.199219 L 432.300781 433.199219 C 425.398438 425.199219 418.101562 417.601562 410.398438 410.398438 L 490.199219 410.398438 C 496.5 410.398438 501.601562 405.300781 501.601562 399 L 501.601562 307.800781 C 501.601562 301.5 496.5 296.398438 490.199219 296.398438 L 307.800781 296.398438 C 301.5 296.398438 296.398438 301.5 296.398438 307.800781 L 296.398438 344.601562 L 286.898438 340.898438 C 281 338.601562 278.199219 332 280.5 326.101562 C 280.699219 325.699219 280.898438 325.199219 281.101562 324.800781 L 295.300781 298.601562 C 299.601562 290.5 303.398438 282.199219 306.699219 273.699219 L 444.5 273.699219 C 450.800781 273.699219 455.898438 268.601562 455.898438 262.300781 L 455.898438 171 C 455.898438 164.699219 450.800781 159.601562 444.5 159.601562 L 319.101562 159.601562 C 317.800781 151.898438 316.199219 144.300781 314.101562 136.800781 L 387.601562 136.800781 C 393.898438 136.800781 399 131.699219 399 125.398438 L 399 34.199219 C 399 27.898438 393.898438 22.800781 387.601562 22.800781 L 236.699219 22.800781 C 215.601562 8 190.601562 0.101562 164.898438 0 L 11.398438 0 C 5.101562 0 0 5.101562 0 11.398438 L 0 672.601562 C 0 678.898438 5.101562 684 11.398438 684 L 581.398438 684 C 587.699219 684 592.800781 678.898438 592.800781 672.601562 L 592.800781 581.398438 C 592.800781 575.101562 587.699219 570 581.398438 570 Z M 524.398438 456 L 524.398438 524.398438 L 485.398438 524.398438 C 482.800781 517.199219 479.898438 510.199219 476.800781 503.300781 C 475.898438 501.199219 474.800781 499.101562 473.800781 497.101562 C 471.5 492.199219 469 487.300781 466.300781 482.5 C 465.199219 480.398438 464 478.199219 462.699219 476.101562 C 459.601562 470.800781 456.300781 465.5 452.800781 460.398438 C 452 459.300781 451.300781 458 450.5 456.800781 C 450.300781 456.5 450.199219 456.300781 450 456 Z M 319.199219 353.5 L 319.199219 319.199219 L 478.800781 319.199219 L 478.800781 387.601562 L 382.5 387.601562 C 380.199219 385.898438 377.800781 384.398438 375.398438 382.800781 C 373.300781 381.398438 371.300781 380 369.199219 378.601562 C 366 376.601562 362.800781 374.699219 359.5 372.800781 C 357.601562 371.699219 355.601562 370.5 353.699219 369.398438 C 349.898438 367.300781 346.101562 365.398438 342.199219 363.601562 C 340.699219 362.800781 339.199219 362 337.601562 361.300781 C 332.101562 358.699219 326.601562 356.398438 321 354.101562 Z M 433.199219 182.398438 L 433.199219 250.800781 L 314.5 250.800781 C 314.699219 250 314.898438 249.101562 315.101562 248.300781 C 316.101562 244.398438 317 240.398438 317.800781 236.5 C 318.101562 235.199219 318.300781 233.898438 318.601562 232.699219 C 319.5 227.699219 320.300781 222.699219 320.800781 217.601562 C 320.898438 216.699219 320.898438 215.800781 321 214.898438 C 321.398438 210.601562 321.699219 206.398438 321.800781 202.101562 C 321.898438 200.601562 321.898438 199.199219 321.898438 197.699219 C 322 193 321.898438 188.398438 321.699219 183.699219 C 321.699219 183.300781 321.699219 182.898438 321.699219 182.5 Z M 376.199219 45.601562 L 376.199219 114 L 306.398438 114 C 306.199219 113.398438 305.800781 112.800781 305.601562 112.199219 C 303.300781 106.601562 300.800781 101.101562 298.101562 95.699219 C 297.800781 95.199219 297.5 94.699219 297.300781 94.199219 C 294.699219 89.300781 291.898438 84.5 289 79.800781 C 288.199219 78.5 287.398438 77.199219 286.601562 75.898438 C 283.300781 70.898438 279.898438 65.898438 276.199219 61.199219 C 275.898438 60.800781 275.601562 60.5 275.300781 60.101562 C 271.800781 55.699219 268.199219 51.5 264.398438 47.398438 C 263.800781 46.800781 263.398438 46.101562 262.800781 45.5 Z M 22.800781 22.800781 L 164.800781 22.800781 C 187.101562 22.800781 208.800781 30.101562 226.601562 43.5 C 228.300781 44.699219 230 46 231.601562 47.398438 C 231.800781 47.601562 232.398438 48.199219 232.601562 48.300781 C 257.5 70.199219 276.5 98 287.800781 129.199219 C 292.800781 143.101562 296.199219 157.5 297.898438 172.199219 C 301.199219 201.300781 297.898438 230.800781 288.199219 258.398438 C 284.800781 268.398438 280.398438 278.199219 275.300781 287.5 L 261.101562 313.699219 C 252 330.300781 258.101562 351 274.601562 360.101562 C 275.898438 360.800781 277.199219 361.398438 278.5 361.898438 L 312.601562 375.199219 C 317.898438 377.300781 323.101562 379.5 328.199219 381.898438 C 343.601562 389.101562 358.300781 397.898438 372 407.898438 C 389.199219 420.5 404.699219 435.199219 418.300781 451.601562 C 438.101562 475.5 453.5 502.699219 463.898438 531.898438 C 464.800781 534.300781 465.5 536.601562 466.300781 539 C 470.898438 553.199219 474.199219 567.800781 476.199219 582.699219 C 477.898438 594.601562 478.699219 606.699219 478.699219 618.800781 L 478.699219 661 L 22.699219 661 L 22.699219 22.800781 Z M 570 661.199219 L 501.601562 661.199219 L 501.601562 619 C 501.601562 611.199219 501.199219 603.398438 500.5 595.398438 C 500.398438 594.5 500.5 593.601562 500.398438 592.699219 L 570 592.699219 Z M 570 661.199219 " style="" fill="#ffffff" data-original="#000000"/>
</g>
</g></svg>
