<svg id="Capa_1" enable-background="new 0 0 512 512" height="512" viewBox="0 0 512 512" width="512" xmlns="http://www.w3.org/2000/svg"><g><path d="m511.216 359.62-20.49-48.75c-1.57-3.72-5.19-6.13-9.23-6.13-1.33 0-2.63.27-3.87.79-5.08 2.13-7.48 8.01-5.34 13.09l14.66 34.88h-454.728l62.39-70.44 30.714-1.393-18.628 34.592c-2.618 4.862-.799 10.927 4.063 13.546 1.508.812 3.131 1.197 4.732 1.197 3.56 0 7.007-1.906 8.813-5.261l24.303-45.131 101.841-4.62c2.68-.12 5.15-1.28 6.95-3.26l46.42-51.07 59.05 8.55 33.556 55.936c1.875 3.125 5.187 4.856 8.584 4.856 1.751 0 3.525-.46 5.136-1.427 4.735-2.842 6.271-8.984 3.429-13.72l-9.286-15.475 37.791-19.7c2.6 1.33 5.73 1.45 8.43.31 2.46-1.03 4.38-2.96 5.39-5.44 1-2.47.99-5.18-.04-7.64v-.01l-1.64-3.89c-.575-1.368-1.454-2.573-2.54-3.551-.031-.031-65.083-57.144-65.083-57.144-.094-.083-.19-.164-.287-.242-19.482-15.846-44.036-24.572-69.139-24.572-25.831 0-50.929 9.176-70.668 25.837l-55.555 46.87-60.881 5.717c-2.527.237-4.869 1.426-6.552 3.327l-121.003 136.618c-2.6 2.94-3.24 7.15-1.63 10.73 1.61 3.59 5.19 5.9 9.12 5.9h491.998c3.36 0 6.47-1.67 8.33-4.47 1.86-2.79 2.19-6.31.89-9.41zm-375.351-123.153 60.067-5.641c2.03-.19 3.955-.998 5.513-2.313l57.952-48.892c16.137-13.621 36.653-21.122 57.769-21.122 20.459 0 40.473 7.092 56.378 19.972l53.88 47.29-33.448 17.439-16.41-27.34c-1.55-2.59-4.15-4.32-7.14-4.76l-69-10c-3.25-.47-6.62.74-8.83 3.17l-47.2 51.93-132.318 6z"/><path d="m291.783 270.296-25 36c-3.15 4.537-2.026 10.768 2.51 13.918 1.739 1.208 3.727 1.787 5.695 1.787 3.165 0 6.28-1.5 8.223-4.297l25-36c3.15-4.537 2.026-10.768-2.51-13.918s-10.767-2.027-13.918 2.51z"/><path d="m334.997 294v27c0 5.523 4.477 10 10 10s10-4.477 10-10v-27c0-5.523-4.477-10-10-10s-10 4.477-10 10z"/><circle cx="464.068" cy="273.26" r="10"/></g></svg>