<?xml version="1.0"?>
<svg xmlns="http://www.w3.org/2000/svg" xmlns:xlink="http://www.w3.org/1999/xlink" xmlns:svgjs="http://svgjs.com/svgjs" version="1.1" width="512" height="512" x="0" y="0" viewBox="0 0 512 512" style="enable-background:new 0 0 512 512" xml:space="preserve"><g><path xmlns="http://www.w3.org/2000/svg" d="m163.671875 20c2.628906 0 5.207031-1.070312 7.066406-2.929688 1.859375-1.859374 2.933594-4.441406 2.933594-7.070312s-1.070313-5.210938-2.933594-7.070312c-1.859375-1.859376-4.4375-2.929688-7.066406-2.929688-2.632813 0-5.210937 1.070312-7.070313 2.929688-1.859374 1.859374-2.929687 4.441406-2.929687 7.070312s1.066406 5.210938 2.929687 7.070312c1.859376 1.859376 4.4375 2.929688 7.070313 2.929688zm0 0" fill="#ffffff" data-original="#000000" style=""/><path xmlns="http://www.w3.org/2000/svg" d="m315.695312 384h-217.535156c-43.097656 0-78.160156-35.0625-78.160156-78.160156v-5.007813c0-40.339843 32.816406-73.15625 73.15625-73.15625 33.367188 0 60.511719-27.144531 60.511719-60.511719 0-33.363281-27.144531-60.507812-60.511719-60.507812h-7.445312c-23.890626 0-43.328126-19.4375-43.328126-43.328125s19.4375-43.328125 43.328126-43.328125h37.957031c5.523437 0 10-4.476562 10-10s-4.476563-10-10-10h-37.957031c-34.917969 0-63.328126 28.410156-63.328126 63.328125s28.410157 63.328125 63.328126 63.328125h7.445312c22.335938 0 40.511719 18.171875 40.511719 40.507812 0 22.339844-18.175781 40.511719-40.511719 40.511719-51.367188 0-93.15625 41.789063-93.15625 93.15625v5.007813c0 54.125 44.035156 98.160156 98.160156 98.160156h217.535156c5.523438 0 10-4.476562 10-10s-4.476562-10-10-10zm0 0" fill="#ffffff" data-original="#000000" style=""/><path xmlns="http://www.w3.org/2000/svg" d="m355.699219 384c-2.628907 0-5.210938 1.070312-7.070313 2.929688-1.859375 1.859374-2.929687 4.441406-2.929687 7.070312s1.070312 5.210938 2.929687 7.070312c1.859375 1.859376 4.441406 2.929688 7.070313 2.929688 2.628906 0 5.210937-1.070312 7.070312-2.929688 1.859375-1.859374 2.929688-4.441406 2.929688-7.070312s-1.070313-5.210938-2.929688-7.070312c-1.859375-1.859376-4.441406-2.929688-7.070312-2.929688zm0 0" fill="#ffffff" data-original="#000000" style=""/><path xmlns="http://www.w3.org/2000/svg" d="m437.566406 255.136719h-23.566406c-18.078125 0-32.785156-14.707031-32.785156-32.785157 0-18.078124 14.707031-32.785156 32.785156-32.785156h3.21875c52.261719 0 94.78125-42.519531 94.78125-94.785156 0-52.261719-42.519531-94.78125-94.78125-94.78125h-213.546875c-5.519531 0-10 4.476562-10 10s4.480469 10 10 10h213.546875c41.234375 0 74.78125 33.546875 74.78125 74.78125s-33.546875 74.78125-74.78125 74.78125h-3.21875c-29.105469 0-52.785156 23.679688-52.785156 52.785156 0 29.105469 23.679687 52.789063 52.785156 52.789063h23.566406c30.015625 0 54.433594 24.417969 54.433594 54.429687 0 30.015625-24.417969 54.433594-54.433594 54.433594h-41.867187c-5.519531 0-10 4.476562-10 10s4.480469 10 10 10h41.867187c41.042969 0 74.433594-33.390625 74.433594-74.433594 0-41.042968-33.390625-74.429687-74.433594-74.429687zm0 0" fill="#ffffff" data-original="#000000" style=""/><path xmlns="http://www.w3.org/2000/svg" d="m180.164062 270.324219c-21.570312 0-42.082031 8.917969-56.816406 24.296875l-25.234375-25.234375c-2.859375-2.859375-7.160156-3.714844-10.898437-2.167969-3.734375 1.546875-6.171875 5.191406-6.171875 9.238281v65.996094c0 4.046875 2.4375 7.691406 6.171875 9.238281 1.238281.511719 2.539062.761719 3.824218.761719 2.605469 0 5.160157-1.015625 7.074219-2.929687l25.234375-25.234376c14.734375 15.382813 35.25 24.296876 56.820313 24.296876 25.515625 0 49.550781-12.472657 64.296875-33.363282 2.4375-3.457031 2.4375-8.074218 0-11.53125-14.746094-20.890625-38.78125-33.367187-64.300782-33.367187zm-79.121093 47.988281v-17.710938l8.855469 8.855469zm35.808593-8.855469c11.050782-12.089843 26.765626-19.132812 43.3125-19.132812 5.058594 0 10.03125.667969 14.824219 1.921875-5.289062 10.824218-5.289062 23.59375 0 34.417968-4.792969 1.257813-9.765625 1.921876-14.824219 1.921876-16.546874 0-32.261718-7.039063-43.3125-19.128907zm76.335938 8.898438c-2.914062-5.550781-2.914062-12.246094 0-17.800781 3.738281 2.550781 7.203125 5.519531 10.296875 8.902343-3.09375 3.382813-6.558594 6.351563-10.296875 8.898438zm0 0" fill="#ffffff" data-original="#000000" style=""/><path xmlns="http://www.w3.org/2000/svg" d="m252.300781 127.339844c1.234375.511718 2.535157.761718 3.824219.761718 2.601562 0 5.160156-1.015624 7.074219-2.929687l25.234375-25.234375c14.734375 15.378906 35.246094 24.296875 56.816406 24.296875 25.519531 0 49.554688-12.472656 64.296875-33.367187 2.441406-3.457032 2.4375-8.074219 0-11.53125-14.742187-20.890626-38.777344-33.363282-64.296875-33.363282-21.570312 0-42.082031 8.917969-56.816406 24.292969l-25.234375-25.234375c-2.859375-2.855469-7.160157-3.710938-10.898438-2.167969-3.734375 1.550781-6.171875 5.195313-6.171875 9.242188v65.996093c0 4.042969 2.433594 7.691407 6.171875 9.238282zm136.265625-42.238282c-3.089844 3.382813-6.558594 6.355469-10.296875 8.902344-1.429687-2.710937-2.191406-5.746094-2.191406-8.902344 0-3.152343.761719-6.1875 2.191406-8.902343 3.738281 2.550781 7.207031 5.519531 10.296875 8.902343zm-43.316406-19.128906c5.050781 0 10.019531.664063 14.804688 1.917969-2.597657 5.292969-3.976563 11.144531-3.976563 17.210937 0 6.070313 1.378906 11.921876 3.976563 17.214844-4.785157 1.253906-9.753907 1.917969-14.804688 1.917969-16.546875 0-32.261719-7.042969-43.316406-19.132813 11.054687-12.089843 26.769531-19.128906 43.316406-19.128906zm-79.121094 10.273438 8.855469 8.855468-8.855469 8.855469zm0 0" fill="#ffffff" data-original="#000000" style=""/><path xmlns="http://www.w3.org/2000/svg" d="m414.710938 321.484375c3.90625-3.90625 3.90625-10.238281 0-14.140625-3.90625-3.90625-10.234376-3.90625-14.140626 0-2.734374 2.734375-6.375 4.242188-10.242187 4.242188s-7.503906-1.507813-10.238281-4.242188c-1.875-1.875-4.421875-2.929688-7.074219-2.929688s-5.195313 1.054688-7.070313 2.929688c-5.644531 5.644531-14.835937 5.644531-20.480468 0-3.90625-3.90625-10.238282-3.90625-14.144532 0-2.734374 2.734375-6.371093 4.242188-10.242187 4.242188-3.867187 0-7.503906-1.507813-10.238281-4.242188-3.90625-3.90625-10.238282-3.90625-14.144532 0-3.90625 3.902344-3.90625 10.234375 0 14.140625 11.285157 11.285156 28.503907 13.097656 41.695313 5.445313 10.660156 6.183593 23.953125 6.1875 34.617187.003906 5.203126 3.035156 11.136719 4.652344 17.320313 4.652344 9.210937 0 17.871094-3.589844 24.382813-10.101563zm0 0" fill="#ffffff" data-original="#000000" style=""/><path xmlns="http://www.w3.org/2000/svg" d="m226.050781 191.46875c-3.90625-3.902344-10.234375-3.902344-14.144531 0-2.734375 2.738281-6.371094 4.242188-10.238281 4.242188-3.871094 0-7.507813-1.503907-10.242188-4.242188-3.90625-3.902344-10.234375-3.902344-14.144531 0-3.902344 3.90625-3.902344 10.238281 0 14.144531 11.285156 11.28125 28.503906 13.097657 41.699219 5.441407 10.660156 6.1875 23.949219 6.1875 34.613281.007812 5.203125 3.035156 11.136719 4.648438 17.320312 4.648438 9.210938 0 17.871094-3.585938 24.386719-10.097657 3.902344-3.90625 3.902344-10.238281 0-14.144531-3.90625-3.902344-10.238281-3.902344-14.144531 0-2.734375 2.734375-6.371094 4.242188-10.242188 4.242188-3.867187 0-7.503906-1.507813-10.238281-4.242188-1.875-1.875-4.417969-2.929688-7.070312-2.929688-2.652344 0-5.195313 1.054688-7.074219 2.929688-5.644531 5.648438-14.835938 5.648438-20.480469 0zm0 0" fill="#ffffff" data-original="#000000" style=""/><path xmlns="http://www.w3.org/2000/svg" d="m114.613281 53.847656c-3.902343-3.902344-10.238281-3.902344-14.144531 0-3.90625 3.90625-3.90625 10.238282 0 14.140625 6.511719 6.515625 15.171875 10.101563 24.382812 10.101563 6.183594 0 12.121094-1.613282 17.324219-4.648438 13.191407 7.648438 30.40625 5.832032 41.683594-5.449218 3.90625-3.90625 3.90625-10.238282 0-14.144532-3.90625-3.902344-10.234375-3.902344-14.140625 0-5.648438 5.648438-14.835938 5.648438-20.484375 0-3.90625-3.902344-10.234375-3.902344-14.140625 0-2.734375 2.738282-6.371094 4.242188-10.242188 4.242188-3.867187 0-7.503906-1.503906-10.238281-4.242188zm0 0" fill="#ffffff" data-original="#000000" style=""/></g></svg>
